<?xml version="1.0" standalone="no"?>
<!DOCTYPE svg PUBLIC "-//W3C//DTD SVG 20010904//EN"
 "http://www.w3.org/TR/2001/REC-SVG-20010904/DTD/svg10.dtd">
<svg version="1.0" xmlns="http://www.w3.org/2000/svg"
 width="512.000000pt" height="512.000000pt" viewBox="0 0 512.000000 512.000000"
 preserveAspectRatio="xMidYMid meet">
<metadata>
Created by potrace 1.11, written by Peter Selinger 2001-2013
</metadata>
<g transform="translate(0.000000,512.000000) scale(0.100000,-0.100000)"
fill="#000000" stroke="none">
<path d="M681 4464 c-169 -45 -301 -180 -346 -351 -23 -86 -23 -3020 0 -3106
45 -173 178 -307 350 -352 52 -13 276 -15 1866 -15 1160 0 1826 4 1860 10 183
34 344 195 379 379 6 35 10 571 10 1540 0 1303 -2 1494 -15 1546 -45 172 -179
305 -352 350 -85 22 -3669 21 -3752 -1z m3725 -330 c15 -11 37 -33 48 -48 20
-26 21 -43 24 -297 l3 -269 -1921 0 -1920 0 0 254 c0 264 4 292 43 335 49 53
-55 50 1889 48 l1807 -2 27 -21z m72 -2002 l-3 -1069 -27 -35 c-57 -74 110
-68 -1901 -66 l-1806 3 -27 21 c-15 11 -37 33 -48 48 -21 27 -21 34 -24 1097
l-2 1069 1920 0 1920 0 -2 -1068z"/>
<path d="M1036 3972 c-107 -74 -96 -222 20 -277 75 -36 177 4 209 82 60 144
-103 283 -229 195z"/>
<path d="M1540 3987 c-46 -17 -100 -95 -100 -144 0 -153 194 -218 287 -97 95
125 -38 296 -187 241z"/>
<path d="M2011 3983 c-42 -21 -91 -96 -91 -139 0 -55 27 -103 77 -134 81 -52
163 -33 214 49 32 50 36 91 14 144 -33 79 -139 119 -214 80z"/>
<path d="M2820 2869 c-14 -5 -36 -20 -49 -32 -13 -12 -173 -322 -357 -690
-248 -496 -334 -677 -334 -703 0 -136 158 -213 261 -127 23 20 115 195 366
697 326 652 335 672 330 719 -7 81 -64 138 -144 143 -26 2 -59 -1 -73 -7z"/>
<path d="M1695 2706 c-16 -8 -150 -135 -297 -282 -288 -290 -289 -293 -273
-382 5 -32 44 -75 283 -314 299 -299 301 -300 389 -283 49 9 109 69 118 118
16 85 9 96 -208 315 l-201 202 201 203 c171 171 202 208 208 240 25 132 -101
237 -220 183z"/>
<path d="M3295 2706 c-67 -29 -105 -105 -90 -183 6 -32 37 -69 208 -240 l201
-203 -201 -202 c-217 -219 -224 -230 -208 -315 9 -49 69 -109 118 -118 88 -17
90 -16 389 283 239 239 278 282 283 315 16 88 15 91 -273 381 -147 147 -281
274 -299 282 -40 17 -89 17 -128 0z"/>
</g>
</svg>
